# xmcd
#
# Track frame offsets: 
#        150
#        16906
#        36200
#        50225
#        62372
#        75745
#        94862
#        109240
#        126160
#        145266
#        158725
#        172614
#        187150
#        203855
#
# Disc length: 2913 seconds
#
# Revision: 0
# Processed by: cddbd v1.5.2PL0 Copyright (c) Steve Scherf et al.
# Submitted via: ExactAudioCopy v1.1
#
DISCID=bb0b5f0e
DTITLE=Frans Bauer - Levenslied
DYEAR=2018
DGENRE=Chanson
TTITLE0=Het Geluk Dat Duurt Maar Even
TTITLE1=Amore Mio
TTITLE2=Je Speelt Met M'n Hart
TTITLE3=Het Is Zomer
TTITLE4=Gooi Die Handen In De Lucht
TTITLE5=Weg Uit M'n Leven
TTITLE6=Morgen Komt Alles Goed
TTITLE7=Blijf Vanavond Heel Even Bij Mij
TTITLE8=Mijn Lieve Rosamunde
TTITLE9=Kom Nu Maar In M'n Armen
TTITLE10=Een Zee Vol Tranen
TTITLE11=Ben Even Weg
TTITLE12=Wat Overblijft Zijn Duizend Tranen
TTITLE13=Leef Je Even Met Een Lach
EXTD=
EXTT0=
EXTT1=
EXTT2=
EXTT3=
EXTT4=
EXTT5=
EXTT6=
EXTT7=
EXTT8=
EXTT9=
EXTT10=
EXTT11=
EXTT12=
EXTT13=
PLAYORDER=
